<svg width="320" height="94" viewBox="0 0 320 94" fill="none" xmlns="http://www.w3.org/2000/svg">
<path d="M26.4442 74.7199C34.9042 74.7199 42.8242 70.5799 47.5942 63.6499L36.4342 55.9999C34.1842 59.2399 30.4942 61.2199 26.4442 61.2199C19.7842 61.2199 14.2942 55.8199 14.2942 49.0699C14.2942 42.4099 19.7842 36.9199 26.4442 36.9199C30.4042 36.9199 34.0942 38.8999 36.4342 42.1399L47.4142 34.3099C45.0742 31.0699 42.0142 28.2799 38.4142 26.3899C34.8142 24.4999 30.5842 23.4199 26.4442 23.4199C23.0242 23.4199 19.6042 24.1399 16.4542 25.4899C13.3942 26.7499 10.6942 28.6399 8.26421 30.9799C5.92421 33.3199 4.12421 36.1099 2.77421 39.0799C1.51421 42.3199 0.794189 45.6499 0.794189 49.0699C0.794189 52.5799 1.51421 55.9099 2.77421 59.0599C4.12421 62.1199 5.92421 64.9099 8.26421 67.2499C10.6942 69.5899 13.3942 71.4799 16.4542 72.7399C19.6042 74.0899 23.0242 74.7199 26.4442 74.7199Z" fill="#454042"/>
<path d="M50.9678 6.0503V74.0903H64.5578V1.55029L50.9678 6.0503Z" fill="#454042"/>
<path d="M93.8204 74.63C99.7604 74.63 105.43 72.29 109.66 68.06C113.98 63.83 116.32 58.16 116.32 52.13V23.96H102.82V52.13C102.82 57.17 98.7704 61.13 93.8204 61.13C88.7804 61.13 84.8204 57.17 84.8204 52.13V23.96H71.3204V52.13C71.3204 58.16 73.6604 63.83 77.8904 68.06C82.1204 72.29 87.7904 74.63 93.8204 74.63Z" fill="#454042"/>
<path d="M174.055 48.9801C174.055 45.5601 173.425 42.1401 172.075 38.9901C170.725 35.9301 168.925 33.2301 166.585 30.8901C164.245 28.4601 161.455 26.6601 158.395 25.4001C155.245 24.0501 151.915 23.3301 148.405 23.3301C144.985 23.3301 141.565 24.0501 138.415 25.4001C137.695 25.6701 136.975 26.0301 136.255 26.3901V0.830078L122.755 5.33008V48.9801C122.755 52.4901 123.475 55.8201 124.735 58.9701C126.085 62.0301 127.885 64.8201 130.225 67.1601C132.655 69.5001 135.355 71.3901 138.415 72.6501C141.565 74.0001 144.985 74.6301 148.405 74.6301C151.825 74.6301 155.245 74.0001 158.395 72.6501C161.455 71.3001 164.155 69.5001 166.585 67.1601C168.925 64.8201 170.725 62.0301 172.075 58.9701C173.425 55.8201 174.055 52.4901 174.055 48.9801ZM160.555 48.9801C160.555 55.7301 155.065 61.1301 148.405 61.1301C141.745 61.1301 136.255 55.7301 136.255 48.9801C136.255 42.3201 141.745 36.8301 148.405 36.8301C155.065 36.8301 160.555 42.3201 160.555 48.9801Z" fill="#454042"/>
<path d="M166.251 79.67V93.17C173.001 93.17 179.391 90.56 184.161 85.7C188.931 80.93 191.541 74.63 191.541 67.79V22.52L178.041 27.02V67.79C178.041 74.36 172.731 79.67 166.251 79.67Z" fill="#454042"/>
<path d="M221.476 74.6301C224.896 74.6301 228.226 74.0001 231.466 72.6501C234.526 71.3901 237.226 69.5001 239.566 67.1601C241.906 64.8201 243.796 62.0301 245.056 58.9701C246.406 55.8201 247.126 52.4901 247.126 48.9801C247.126 45.5601 246.406 42.2301 245.056 38.9901C243.796 35.9301 241.906 33.2301 239.566 30.8901C237.226 28.5501 234.436 26.6601 231.466 25.4001C228.226 24.0501 224.896 23.3301 221.476 23.3301C217.966 23.3301 214.636 24.0501 211.486 25.4001C208.426 26.6601 205.636 28.5501 203.296 30.8901C200.956 33.2301 199.066 36.0201 197.806 38.9901C196.456 42.2301 195.826 45.5601 195.826 48.9801C195.826 52.4901 196.456 55.8201 197.806 58.9701C199.066 62.0301 200.956 64.8201 203.296 67.1601C205.636 69.5001 208.426 71.3901 211.486 72.6501C214.636 74.0001 217.966 74.6301 221.476 74.6301ZM221.476 36.8301C228.136 36.8301 233.626 42.3201 233.626 48.9801C233.626 55.7301 228.136 61.1301 221.476 61.1301C214.726 61.1301 209.326 55.7301 209.326 48.9801C209.326 42.3201 214.726 36.8301 221.476 36.8301Z" fill="#454042"/>
<path d="M252.413 26.6602V74.0902H266.003V22.1602L252.413 26.6602Z" fill="#454042"/>
<path d="M312.546 31.4299C308.316 27.1099 302.556 24.7699 296.526 24.7699C293.376 24.7699 290.226 25.3999 287.436 26.6599V23.4199H273.936V45.4699C273.846 46.0999 273.846 46.8199 273.846 47.4499H273.936V74.0899H287.436V46.1899C288.066 41.6899 291.936 38.2699 296.526 38.2699C301.566 38.2699 305.706 42.4099 305.706 47.4499V74.0899H319.206V47.4499C319.206 41.4199 316.866 35.7499 312.546 31.4299Z" fill="#454042"/>
</svg>
